<?xml version="1.0" standalone="no"?>
<!DOCTYPE svg PUBLIC "-//W3C//DTD SVG 1.1//EN" "http://www.w3.org/Graphics/SVG/1.1/DTD/svg11.dtd" >
<!--
2013-9-30: Created.
-->
<svg>
<metadata>
Created by iconfont
</metadata>
<defs>

<font id="iconfont" horiz-adv-x="1024" >
  <font-face
    font-family="iconfont"
    font-weight="500"
    font-stretch="normal"
    units-per-em="1024"
    ascent="896"
    descent="-128"
  />
    <missing-glyph />
    
    <glyph glyph-name="zanting" unicode="&#58934;" d="M512 857.39618347c-261.5516064 0-473.39618347-211.844576-473.39618347-473.39618347s211.844576-473.39618347 473.39618347-473.39618347 473.39618347 211.844576 473.39618347 473.39618347S773.5505152 857.39618347 512 857.39618347zM464.66049067 194.64196373000004l-94.67901867 0L369.98147307 573.35803627l94.67901866 0L464.66049067 194.64196373000004zM654.01852693 194.64196373000004l-94.67901866 0L559.33950933 573.35803627l94.67901867 0L654.01852693 194.64196373000004z"  horiz-adv-x="1024" />

    
    <glyph glyph-name="jinru" unicode="&#58899;" d="M294.975686 820.507632c-7.05672-7.05672-7.05672-18.500353 0.001023-25.556049l413.637762-413.602969L294.97671-32.300404c-7.05672-7.05672-7.05672-18.499329 0-25.557072s18.499329-7.05672 25.556049 0.001023l426.416809 426.429089c3.38919 3.390213 5.29254 7.985882 5.29254 12.779048 0 4.793166-1.90335 9.388834-5.293563 12.777001L320.531735 820.508655C313.475016 827.566398 302.033429 827.565375 294.975686 820.507632z"  horiz-adv-x="1024" />

    
    <glyph glyph-name="duigou" unicode="&#58944;" d="M406.62969107 129.29606442c-9.82049771 0-19.64183917 3.73022122-27.13853732 11.18391697L154.08935132 364.77469070999996c-14.99339712 14.92004032-14.99339712 39.10323779 0 54.01737597 14.99339712 14.92004032 39.28283459 14.91413818 54.27623171 0.00590212l198.26410804-197.28939385 408.01061865 406.00469779c14.99339712 14.92004032 39.28283459 14.92004032 54.27623171 0 14.99339712-14.91413818 14.99339712-39.09733567 0-54.01737598L433.76822839 140.48588351C426.27068732 133.02628482 416.45018878 129.29606442 406.62969107 129.29606442z"  horiz-adv-x="1024" />

    
    <glyph glyph-name="A" unicode="&#58933;" d="M793.25 46.5h-89.15625l-63.7875 184.78125H380.0375L319.90625 46.5H230.75L468.8 721.5h86.34375L793.25 46.5zM615.275 307.55625L520.8875 588.1875c-2.98125 8.94375-6.1875 24.69375-9.675 47.025H509.1875c-2.98125-20.3625-6.35625-36-10.06875-47.025L405.4625 307.55625h209.8125z"  horiz-adv-x="1024" />

    
    <glyph glyph-name="arrow-right" unicode="&#59237;" d="M553.07377778 21.95911110999998L886.67022222 355.55555555H28.44444445v56.8888889h858.22577777L553.07377778 746.04088889l40.27733333 40.27733333L995.55555555 384 593.23733333-18.318222220000052l-40.16355555 40.27733333z"  horiz-adv-x="1024" />

    
    <glyph glyph-name="biaoqian" unicode="&#58941;" d="M743.96041667 389.3609375a21.09375 21.09375 0 0 0 29.8265625 29.8265625l55.6875-55.6875a63.28125 63.28125 0 0 0 0-89.4796875l-208.828125-208.828125a63.28125 63.28125 0 0 0-89.4375 0l-321.3 321.2578125a46.40625 46.40625 0 0 0-13.5 30.375L184.38541667 643.709375A63.28125 63.28125 0 0 0 250.95729167 710.28125l226.884375-11.9390625a46.40625 46.40625 0 0 0 30.375-13.5l201.065625-201.1078125a21.09375 21.09375 0 0 0-29.8265625-29.8265625L478.43229167 654.93125a4.21875 4.21875 0 0 1-2.784375 1.265625L248.72135417 668.09375a21.09375 21.09375 0 0 1-22.1484375-22.1484375l11.9390625-226.884375a4.21875 4.21875 0 0 1 1.2234375-2.784375l321.2578125-321.2578125a21.09375 21.09375 0 0 1 29.8265625 0l208.828125 208.828125a21.09375 21.09375 0 0 1 0 29.8265625l-55.6875 55.6875zM385.19791667 425.09375a84.375 84.375 0 1 0 0 168.75 84.375 84.375 0 0 0 0-168.75z m0 42.1875a42.1875 42.1875 0 1 1 0 84.375 42.1875 42.1875 0 0 1 0-84.375z"  horiz-adv-x="1024" />

    
    <glyph glyph-name="xiangyou" unicode="&#59071;" d="M291.0654683-102.05596972000001a44.18690634 44.18690634 0 0 0-31.24428529 75.43119165L670.44458023 384 259.82118301 794.62477807a44.18690634 44.18690634 0 0 0 62.48857061 62.4885706l441.86906337-441.86906337a44.18690634 44.18690634 0 0 0 0-62.4885706l-441.86906337-441.86906337A44.04882225 44.04882225 0 0 0 291.0654683-102.05596972000001z"  horiz-adv-x="1024" />

    
    <glyph glyph-name="gou-" unicode="&#58964;" d="M512 737.28c-195.09248 0-353.28-158.16704-353.28-353.28s158.18752-353.28 353.28-353.28c195.11296 0 353.28 158.16704 353.28 353.28s-158.16704 353.28-353.28 353.28z m-36.17792-511.232c-3.50208-3.50208-8.08448-5.248-12.672-5.248s-9.16992 1.75104-12.672 5.248L291.13856 385.38752a17.91488 17.91488 0 1 0 25.33888 25.33888l146.66752-146.66752 277.90336 277.888a17.91488 17.91488 0 1 0 25.33888-25.33888l-290.56512-290.56z"  horiz-adv-x="1024" />

    
    <glyph glyph-name="denglu--mima" unicode="&#58972;" d="M324.78208 486.32832a17.92 17.92 0 0 1 17.92 17.92V585.94816c0 75.90912 75.9296 135.3728 172.85632 135.3728s172.85632-59.46368 172.85632-135.3728v-81.70496a17.92 17.92 0 1 1 35.84 0V585.94816c0 96.00512-91.66848 171.2128-208.69632 171.2128-117.02784 0-208.69632-75.20256-208.69632-171.2128v-81.70496a17.92 17.92 0 0 1 17.92-17.91488zM739.62496 456.27904H289.49504c-46.05952 0-82.13504-33.28-82.13504-75.76576v-286.44864c0-44.32896 38.38464-83.22048 82.13504-83.22048h450.12992c42.46528 0 77.01504 37.32992 77.01504 83.22048v286.44864c0 43.1872-33.11104 75.76576-77.01504 75.76576z m41.17504-362.21952c0-22.88128-16.54272-47.38048-41.17504-47.38048H289.49504c-23.79776 0-46.29504 23.02976-46.29504 47.38048v286.44864c0 24.99072 23.54176 39.92576 46.29504 39.92576h450.12992c24.2432 0 41.17504-16.41984 41.17504-39.92576v-286.44864zM517.12 320.59904a17.92 17.92 0 0 1-17.92-17.92v-143.36a17.92 17.92 0 1 1 35.84 0v143.36a17.92 17.92 0 0 1-17.92 17.92z"  horiz-adv-x="1024" />

    
    <glyph glyph-name="denglu--yanzhengma" unicode="&#58973;" d="M688.64 755.2h-353.28c-37.06368 0-67.22048-30.1568-67.22048-67.2256v-607.9744c0-37.05344 30.1568-67.2 67.22048-67.2h353.28c37.06368 0 67.22048 30.14656 67.22048 67.2V687.9744c0 37.0688-30.1568 67.2256-67.22048 67.2256z m31.38048-675.2a31.40608 31.40608 0 0 0-31.38048-31.36h-353.28a31.40608 31.40608 0 0 0-31.38048 31.36V687.9744c0 17.3056 14.07488 31.3856 31.38048 31.3856h353.28c17.3056 0 31.38048-14.08 31.38048-31.3856v-607.9744zM563.34848 118.4768H460.65152a17.92 17.92 0 1 1 0-35.84h102.70208a17.92 17.92 0 1 1-0.00512 35.84zM630.72768 513.07008l-151.22944-180.97664-82.5344 75.65312a17.92 17.92 0 1 1-24.21248-26.4192l96.36352-88.33024a17.88928 17.88928 0 0 1 25.85088 1.72032l163.26144 195.37408a17.92 17.92 0 0 1-27.49952 22.97856z"  horiz-adv-x="1024" />

    
    <glyph glyph-name="denglu--shoujihao" unicode="&#58974;" d="M688.63488 755.2H335.36c-37.0688 0-67.23072-30.1568-67.23072-67.2256v-607.9744c0-37.05344 30.16192-67.2 67.23072-67.2h353.27488c37.07392 0 67.23584 30.14656 67.23584 67.2V687.9744c0 37.0688-30.16192 67.2256-67.23584 67.2256z m31.39584-675.2c0-17.29024-14.08512-31.36-31.39584-31.36H335.36c-17.31072 0-31.39072 14.06976-31.39072 31.36V687.9744c0 17.3056 14.08 31.3856 31.39072 31.3856h353.27488a31.42656 31.42656 0 0 0 31.39584-31.3856v-607.9744zM563.34336 118.4768H460.65664a17.92 17.92 0 1 1 0-35.84h102.69184a17.92 17.92 0 1 1-0.00512 35.84z"  horiz-adv-x="1024" />

    
    <glyph glyph-name="shanping--logo" unicode="&#58975;" d="M699.23328 371.17952c-0.0256 0.03072-0.06656 0.06144-0.09728 0.1024-8.07936 8.12032-89.0368 89.76896-110.78656 112.3584l-136.79616 30.33088L338.4832 455.83872l-2.39616-1.20832-2.62656-0.67072c-1.49504-0.38912-9.65632-2.3296-20.736-2.3296-26.61888 0-48.97792 11.47904-64.06144 31.1296C241.5616 492.01152 230.4 517.43232 230.4 517.43232v-185.64096c15.36 9.79968 22.272 15.50848 35.7376 15.50848 9.8816 0 19.8912-3.01056 27.99104-8.71936a47.73376 47.73376 0 0 0 17.00352-21.55008l29.696 42.5984a47.8976 47.8976 0 0 0 39.28064 20.55168c9.8816 0 19.3792-3.0208 27.47904-8.71936a47.85664 47.85664 0 0 0 19.712-31.08864c0.54784-3.12832 0.78848-6.25152 0.73216-9.35936a47.5136 47.5136 0 0 0 35.83488-7.96672 47.87712 47.87712 0 0 0 19.71712-31.08864c0.8448-4.81792 0.95232-9.66144 0.36352-14.39232 1.24416 0.1024 2.48832 0.16896 3.74784 0.16896 9.87648 0 19.37408-3.01056 27.47392-8.70912a47.90784 47.90784 0 0 0 19.71712-31.08864 49.5616 49.5616 0 0 0 0.68096-10.21952 50.24256 50.24256 0 0 0-0.57344-5.68832c-0.09216-0.57856-0.1792-1.16224-0.29696-1.7408a46.08512 46.08512 0 0 0-1.05472-4.3008c-0.16384-0.56832-0.31232-1.13152-0.50176-1.6896-0.39936-1.21856-0.8704-2.42176-1.37728-3.6096-0.18432-0.44032-0.39424-0.88064-0.60416-1.32096a52.93056 52.93056 0 0 0-1.9712-3.81952 51.03616 51.03616 0 0 0-2.26816-3.59936l-13.25056-18.97984 34.83136-35.05152a23.79776 23.79776 0 0 1 33.81248 0c9.35424 9.41056 9.18528 24.65792-0.17408 34.05824l-13.60896 13.32224v0.01024l-10.25536 10.6496c-4.67456 4.70016-4.3264 12.31872 0.34816 17.02912a11.9552 11.9552 0 0 0 16.95232 0l3.30752-3.328 4.84352-4.85888 11.94496-12.01152a23.89504 23.89504 0 0 1 33.8944 0 24.15616 24.15616 0 0 1 0 34.05824l-16.8448 16.93184-14.55104 14.6176a12.10368 12.10368 0 0 0 0 17.03936 11.96544 11.96544 0 0 0 16.96256 0.01024l1.24416-1.2288c0.00512-0.01024 0.00512 0.0512 0.01024 0.04096l41.44128-41.50784c9.35936-9.41056 24.54016-9.18016 33.89952 0.22016 9.35936 9.4208 9.37984 25.10848 0.02048 34.51904l-41.40032 42.5216h0.04608l-14.31552 13.60896c-4.67968 4.70016-4.43904 11.42784 0.24064 16.128 4.67968 4.7104 12.84096 4.7104 17.52064 0l13.61408-12.61056v-0.01024l40.37632-41.62048c9.36448-9.41056 23.53152-9.41056 32.896 0 9.36448 9.40032 9.31328 24.64768-0.04608 34.048l-41.4464 41.6256zM450.11968 303.31904a23.89504 23.89504 0 0 1-33.3824-5.91872l-48.88576-70.13888a24.1664 24.1664 0 0 1 5.88288-33.54112 23.9104 23.9104 0 0 1 33.38752 5.90848l48.88064 70.14912a24.15616 24.15616 0 0 1-5.88288 33.54112zM280.38144 318.85824a23.89504 23.89504 0 0 1-33.3824-5.91872l-18.3296-26.30144c-7.58784-10.90048-4.96128-25.91232 5.87776-33.53088a23.88992 23.88992 0 0 1 33.38752 5.90848l18.3296 26.30144a24.15616 24.15616 0 0 1-5.88288 33.54112zM393.84064 351.72864a23.8848 23.8848 0 0 1-33.3824-5.90848l-64.15872-92.0576a24.1664 24.1664 0 0 1 5.888-33.54112 23.90528 23.90528 0 0 1 33.3824 5.91872l64.14848 92.0576a24.13056 24.13056 0 0 1-5.87776 33.53088zM501.4272 249.28768a23.9104 23.9104 0 0 1-33.38752-5.91872l-18.3296-26.30144a24.1664 24.1664 0 0 1 5.87776-33.54112 23.9104 23.9104 0 0 1 33.38752 5.90848l18.3296 26.31168a24.15104 24.15104 0 0 1-5.87776 33.54112zM411.48416 627.13856L269.40928 500.352c0.31232-0.48128 0.59904-0.9216 0.86016-1.24928 10.368-13.51168 25.088-20.66944 42.57792-20.7104 0.18944 0 0.36352 0 0.54784 0.01024 0.66048 0 1.30048 0.01024 1.92512 0.03072 0.1536 0.01024 0.3072 0.02048 0.45568 0.02048a60.04224 60.04224 0 0 1 10.88 1.36192l112.77824 57.97888 8.5248 4.38272 9.34912-2.06848 136.79104-30.34112 7.82848-1.73056 5.56544-5.79072c21.00736-21.80096 98.4832-99.97824 110.16192-111.73888l0.07168-0.06144 0.17408-0.16896 0.16896-0.16896 41.43104-41.62048c6.54336-7.64928 27.87328-27.49952 29.17888-38.42048l0.08192 245.72928-181.08928 71.35232H411.48416zM814.08 565.76v-276.48h51.2v276.48h-51.2z m35.84-26.86464a3.86048 3.86048 0 0 0-3.86048-3.85536h-7.63904a3.86048 3.86048 0 0 0-3.86048 3.85536v7.63904c0 2.13504 1.73056 3.86048 3.86048 3.86048h7.63904c2.12992 0 3.86048-1.72544 3.86048-3.86048v-7.63904zM158.72 273.92h51.2v276.48H158.72v-276.48z m15.36 31.97952c0 2.12992 1.73056 3.86048 3.86048 3.86048h7.63904c2.12992 0 3.86048-1.73056 3.86048-3.86048v-7.63904a3.8656 3.8656 0 0 0-3.86048-3.86048h-7.63904a3.8656 3.8656 0 0 0-3.86048 3.86048v7.63904z"  horiz-adv-x="1024" />

    
    <glyph glyph-name="denglu--gouxuanxieyi" unicode="&#58976;" d="M849.6384 401.92a17.92 17.92 0 0 1-17.92-17.92c0-180.60288-146.93376-327.54176-327.54176-327.54176S176.64 203.39712 176.64 384s146.93376 327.54176 327.54176 327.54176c48.80384 0 95.8208-10.5216 139.7504-31.26784a17.92 17.92 0 1 1 15.3088 32.4096c-48.75264 23.02464-100.92544 34.69824-155.0592 34.69824C303.81056 747.38176 140.8 584.36608 140.8 384c0-200.3712 163.01056-363.38176 363.38176-363.38176s363.38176 163.01056 363.38176 363.38176a17.92512 17.92512 0 0 1-17.92512 17.92zM877.952 663.47008a17.91488 17.91488 0 0 1-25.33888 0l-396.20096-396.18048-143.14496 143.13984a17.92 17.92 0 0 1-25.344-25.33888l155.81696-155.80672c3.49696-3.50208 8.08448-5.248 12.672-5.248s9.17504 1.75104 12.672 5.248l408.86784 408.84736a17.91488 17.91488 0 0 1 0 25.33888z"  horiz-adv-x="1024" />

    
    <glyph glyph-name="fanhui" unicode="&#58977;" d="M732.16-64a17.91488 17.91488 0 0 1 12.672 30.58688L332.544 378.88l412.28288 412.28288a17.92 17.92 0 0 1-25.33888 25.344l-424.96-424.96a17.92 17.92 0 0 1 0-25.33888l424.95488-424.96A17.88928 17.88928 0 0 1 732.16-64z"  horiz-adv-x="1024" />

    
    <glyph glyph-name="denglu--logo" unicode="&#58978;" d="M755.7376 737.28H268.26752C207.7696 737.28 158.72 688.23552 158.72 627.73248v-487.47008C158.72 79.76448 207.7696 30.72 268.26752 30.72h487.47008c60.49792 0 109.5424 49.04448 109.5424 109.54752V627.73248C865.28 688.23552 816.24064 737.28 755.7376 737.28zM317.44 312.32h-35.84V496.64h35.84v-184.32z m51.81952 8.42752l-12.07808-17.32608a15.74912 15.74912 0 0 0-22.00064-3.89632 15.90784 15.90784 0 0 0-3.87072 22.09792l12.07296 17.3312c5.00736 7.17312 14.848 8.91904 21.99552 3.89632s8.87808-14.9248 3.88096-22.10304z m10.48576-42.88512a15.91808 15.91808 0 0 0-3.88096 22.09792l42.27584 60.66176a15.744 15.744 0 0 0 21.99552 3.8912 15.90784 15.90784 0 0 0 3.88096-22.0928l-42.27072-60.66176a15.744 15.744 0 0 0-22.00064-3.89632z m47.15008-17.46432a15.90272 15.90272 0 0 0-3.88096 22.08768l32.20992 46.21824a15.73888 15.73888 0 0 0 21.9904 3.90144 15.91808 15.91808 0 0 0 3.88096-22.10304l-32.2048-46.21312a15.73888 15.73888 0 0 0-21.99552-3.8912z m88.0128 14.51008l-12.0832-17.33632a15.75936 15.75936 0 0 0-22.00064-3.89632 15.91296 15.91296 0 0 0-3.87584 22.09792l12.07296 17.3312a15.74912 15.74912 0 0 0 22.00064 3.89632 15.90784 15.90784 0 0 0 3.88608-22.0928z m153.78944 52.54656a15.47776 15.47776 0 0 0-22.1184 0L619.52 354.87744v0.01024l-8.51968 8.30976a8.064 8.064 0 0 1-11.32032 0 7.9616 7.9616 0 0 1-0.04096-11.22304l9.49248-9.5488c0-0.01024-0.01024-0.01024-0.01024-0.01024l27.29984-27.42272a15.9232 15.9232 0 0 0-0.01024-22.44608 15.73376 15.73376 0 0 0-22.32832 0l-27.29984 27.42784-0.01024 0.01024-0.8192 0.82432a7.87456 7.87456 0 0 1-11.17184 0 7.94112 7.94112 0 0 1 0-11.21792l9.57952-9.63072 11.10016-11.15648a15.91808 15.91808 0 0 0 0-22.44096 15.73376 15.73376 0 0 0-22.32832 0l-7.86944 7.9104-3.2 3.21024-2.18112 2.18624c-3.08224 3.09248-8.07936 3.09248-11.1616 0s-3.08224-8.12032 0-11.21792l6.97856-7.01952 8.73984-8.7808a15.91808 15.91808 0 0 0 0-22.44096 15.744 15.744 0 0 0-22.32832 0l-22.97856 23.0912 8.71936 12.50304c0.53248 0.77312 1.01888 1.57184 1.47968 2.37568 0.14848 0.26112 0.2816 0.52224 0.43008 0.77312 0.31232 0.57344 0.5888 1.16224 0.8704 1.74592 0.128 0.29184 0.27136 0.57856 0.39936 0.87552a34.8672 34.8672 0 0 1 0.90112 2.37568c0.11776 0.36352 0.22016 0.7424 0.32768 1.11104a32.54784 32.54784 0 0 1 0.6912 2.82624c0.08192 0.37888 0.13824 0.76288 0.19968 1.152a32.4352 32.4352 0 0 1-0.07168 10.48064 31.5648 31.5648 0 0 1-12.98944 20.48 31.35488 31.35488 0 0 1-18.11456 5.74464c-0.82944 0-1.64864-0.04608-2.46784-0.11264a31.76448 31.76448 0 0 1-0.24064 9.48736 31.5392 31.5392 0 0 1-12.98944 20.48512 31.32416 31.32416 0 0 1-23.60832 5.248 31.7952 31.7952 0 0 1-0.48128 6.1696 31.5648 31.5648 0 0 1-12.98944 20.49024 31.37024 31.37024 0 0 1-18.0992 5.7344 31.5904 31.5904 0 0 1-25.89184-13.53216l-19.56352-28.07808a31.488 31.488 0 0 1-11.20256 14.208 31.82592 31.82592 0 0 1-18.25792 5.73952c-8.87808 0-18.25792-3.7632-23.37792-10.21952V473.69728s7.17824-16.75264 11.86816-22.85056c9.92768-12.94848 24.57088-20.51072 42.11712-20.51072 7.296 0 12.63104 1.28 13.61408 1.536l1.71008 0.4352 1.56672 0.79872 74.50624 38.30272L568.32 451.42016c14.34112-14.87872 67.67104-68.6848 72.99072-74.04032l0.07168-0.06144 27.29984-27.42784a15.91808 15.91808 0 0 0 0.01536-22.43584z m31.61088 9.6c-0.86016 7.1936-14.90944 20.27008-19.22048 25.30816l-27.31008 27.42272-0.10752 0.11264-0.10752 0.10752-0.0512 0.04096c-7.69024 7.74656-58.74176 59.25888-72.59136 73.63072l-3.6608 3.8144-5.16096 1.14176-90.1376 19.9936-6.15936 1.36704-5.61664-2.88768-74.30656-38.20544a40.71936 40.71936 0 0 0-7.17312-0.896l-0.29696-0.01024c-0.41472-0.01024-0.83968-0.02048-1.26976-0.02048h-0.36352c-11.52512 0.0256-21.22752 4.74112-28.05248 13.6448a11.61216 11.61216 0 0 0-0.56832 0.82432l93.6192 83.54304h129.27488l119.33184-47.01696-0.07168-161.91488zM752.64 322.56h-35.84V506.88h35.84v-184.32zM729.8816 484.93568h5.01248a2.54464 2.54464 0 0 1 2.53952 2.54464v5.00736a2.54464 2.54464 0 0 1-2.53952 2.54464h-5.01248a2.54464 2.54464 0 0 1-2.53952-2.54464v-5.00736c0-1.40288 1.13664-2.54464 2.53952-2.54464zM299.20768 323.44064h5.01248a2.54464 2.54464 0 0 1 2.53952 2.53952v5.01248a2.54464 2.54464 0 0 1-2.53952 2.53952h-5.01248a2.54464 2.54464 0 0 1-2.53952-2.53952v-5.01248c0-1.39776 1.14176-2.53952 2.53952-2.53952z"  horiz-adv-x="1024" />

    
    <glyph glyph-name="daohang--kehu" unicode="&#58979;" d="M512 755.2c-204.68224 0-371.2-166.51776-371.2-371.2s166.51776-371.2 371.2-371.2 371.2 166.51776 371.2 371.2-166.51776 371.2-371.2 371.2z m200.4992-639.86688c-19.40992 12.4672-40.48896 12.43648-66.01728 12.36992l-31.84128-0.01536-34.90816 49.97632c40.4224 31.89248 68.28032 88.43264 70.8352 139.70944 35.10272 40.38656 13.97248 132.57216 5.94944 162.14528a92.89728 92.89728 0 0 1-12.43648 79.8464c-17.79712 25.77408-47.13984 40.55552-80.512 40.55552-25.4208 0-52.1984-8.2176-79.67232-24.44288-99.53792-1.47456-115.18976-46.72512-115.88096-92.0832-5.90848-16.3328-27.15648-85.5552 4.94592-162.16576 1.31584-52.53632 29.83424-111.46752 71.61856-144.06656l-33.76128-49.47456h-24.9088c-28.87168 0-52.58752-0.0512-73.94304-12.69248C229.89824 176.18432 176.64 273.98656 176.64 384c0 184.91904 150.44096 335.36 335.36 335.36 184.91904 0 335.36-150.44096 335.36-335.36 0-109.80352-53.0432-207.45728-134.8608-268.66688z"  horiz-adv-x="1024" />

    
    <glyph glyph-name="daohang--tixing" unicode="&#58980;" d="M713.73824 360.43776c-89.1392 0-161.65888-72.51968-161.65888-161.65888s72.51968-161.64864 161.65888-161.64864 161.64864 72.50944 161.64864 161.64864-72.50432 161.65888-161.64864 161.65888z m84.48-197.92896h-92.16a17.92 17.92 0 0 0-17.92 17.92v100.70016a17.92 17.92 0 1 0 35.84 0v-82.78016h74.24a17.92 17.92 0 1 0 0-35.84zM360.45824 543.104a17.92 17.92 0 0 1 17.92 17.92v158.72a17.92 17.92 0 1 1-35.84 0v-158.72a17.92 17.92 0 0 1 17.92-17.92zM667.65824 543.104a17.92 17.92 0 0 1 17.92 17.92v158.72a17.92 17.92 0 0 1-35.84 0v-158.72a17.92 17.92 0 0 1 17.92-17.92zM516.23936 198.77888c0 108.9024 88.6016 197.49888 197.49888 197.49888 52.17792 0 99.67104-20.3776 135.01952-53.5552V599.424c0 38.11328-31.01184 69.12-69.12 69.12h-58.21952v-107.52c0-29.6448-24.12032-53.76-53.76-53.76-29.64992 0-53.76 24.1152-53.76 53.76v107.52h-199.68v-107.52c0-29.6448-24.1152-53.76-53.76-53.76s-53.76 24.1152-53.76 53.76v107.52H217.728c-38.11328 0-69.12-31.00672-69.12-69.12v-499.2c0-38.10816 31.00672-69.12 69.12-69.12h350.51008l42.51136-0.75776c-56.63744 34.75456-94.51008 97.24416-94.51008 168.43264z m-304.59392 244.3264a17.92 17.92 0 0 0 17.92 17.92h538.23488a17.92 17.92 0 0 0 0-35.84H229.56544a17.92 17.92 0 0 0-17.92 17.92z"  horiz-adv-x="1024" />

    
    <glyph glyph-name="daohang--kehu1" unicode="&#58982;" d="M512 755.2c-204.68224 0-371.2-166.51776-371.2-371.2s166.51776-371.2 371.2-371.2 371.2 166.51776 371.2 371.2-166.51776 371.2-371.2 371.2zM350.09024 90.43456c9.38496 1.29024 20.84864 1.41312 35.82976 1.41312h34.37568a17.90976 17.90976 0 0 1 14.80192 7.81824l39.48544 57.87136c0.36864 0.53248 0.60928 1.11616 0.91136 1.67424 11.58144-4.5824 23.7568-7.15776 36.352-7.15776 12.88192 0 25.3184 2.69824 37.14048 7.48032 0.37376-0.72704 0.72704-1.46432 1.2032-2.15552l40.42752-57.87136a17.90464 17.90464 0 0 1 14.68928-7.65952l41.28768 0.01536c12.1088 0.0256 21.08928-0.05632 28.29312-0.86528A333.18912 333.18912 0 0 0 512 48.64a333.24544 333.24544 0 0 0-161.90976 41.79456z m270.464 384.61952c12.89728-44.55424 22.08256-118.66624 0.86528-136.22784a17.90976 17.90976 0 0 1-6.49728-13.80352c0-65.36192-53.94944-137.12384-103.08096-137.12384-49.13152 0-103.08096 71.76704-103.08096 137.12384 0 2.47808-0.51712 4.93056-1.5104 7.19872-31.93344 72.78592-5.0432 140.30848-4.79232 140.928 0.90624 2.18112 1.37728 4.52096 1.37728 6.8864 0 29.32224 0 59.64288 85.12512 59.64288a17.92 17.92 0 0 1 9.44128 2.688c23.24992 14.40768 45.17376 21.71904 65.16736 21.71904 21.72928 0 39.84896-8.9088 51.01568-25.07776a57.0368 57.0368 0 0 0 6.4256-52.61824 17.9712 17.9712 0 0 1-0.45568-11.33568z m91.94496-359.72096c-19.40992 12.4672-40.48896 12.43648-66.01728 12.36992l-31.84128-0.01536-34.90816 49.97632c40.4224 31.89248 68.28032 88.43264 70.8352 139.70944 35.10272 40.38656 13.97248 132.57216 5.94944 162.14528a92.89728 92.89728 0 0 1-12.43648 79.8464c-17.79712 25.77408-47.13984 40.55552-80.512 40.55552-25.4208 0-52.1984-8.2176-79.67232-24.44288-99.53792-1.47456-115.18976-46.72512-115.88096-92.0832-5.90848-16.3328-27.15648-85.5552 4.94592-162.16576 1.31584-52.53632 29.83424-111.46752 71.61856-144.06656l-33.76128-49.47456h-24.9088c-28.87168 0-52.58752-0.0512-73.94304-12.69248C229.89824 176.18432 176.64 273.98656 176.64 384c0 184.91904 150.44096 335.36 335.36 335.36 184.91904 0 335.36-150.44096 335.36-335.36 0-109.80352-53.0432-207.45728-134.8608-268.66688z"  horiz-adv-x="1024" />

    
    <glyph glyph-name="daohang--tixing1" unicode="&#58983;" d="M567.78752 66.56h-350.5152a33.32096 33.32096 0 0 0-33.28 33.28V599.04c0 18.35008 14.92992 33.28 33.28 33.28h73.61024a17.92 17.92 0 1 1 0 35.84H217.27744c-38.11328 0-69.12-31.00672-69.12-69.12v-499.2c0-38.11328 31.00672-69.12 69.12-69.12h350.5152a17.92 17.92 0 1 1-0.00512 35.84zM736.5376 632.32h42.64448c18.35008 0 33.28-14.92992 33.28-33.28v-224.86016a17.92 17.92 0 1 1 35.84 0V599.04c0 38.11328-31.00672 69.12-69.12 69.12h-42.64448a17.92 17.92 0 1 1 0-35.84zM429.12768 632.32h169.38496a17.92 17.92 0 1 1 0 35.84H429.12768a17.92 17.92 0 1 1 0-35.84zM229.11488 460.6464a17.92 17.92 0 1 1 0-35.84h538.22976a17.92 17.92 0 1 1 0 35.84H229.11488zM360.00768 542.72a17.92 17.92 0 0 1 17.92 17.92v158.72a17.92 17.92 0 1 1-35.84 0v-158.72a17.92 17.92 0 0 1 17.92-17.92zM667.20256 542.72a17.92 17.92 0 0 1 17.92 17.92v158.72a17.92 17.92 0 1 1-35.84 0v-158.72a17.92 17.92 0 0 1 17.92-17.92zM713.28256 360.05376c-89.1392 0-161.65376-72.51456-161.65376-161.65376s72.51456-161.65376 161.65376-161.65376 161.65376 72.51456 161.65376 161.65376-72.50944 161.65376-161.65376 161.65376z m0-289.28c-70.36928 0-127.62624 57.25696-127.62624 127.62624s57.25696 127.62624 127.62624 127.62624 127.62624-57.25696 127.62624-127.62624-57.25184-127.62624-127.62624-127.62624zM797.76256 197.96992h-74.24v82.77504a17.92 17.92 0 1 1-35.84 0v-100.69504a17.92 17.92 0 0 1 17.92-17.92h92.16a17.92 17.92 0 1 1 0 35.84z"  horiz-adv-x="1024" />

    
    <glyph glyph-name="tixing--qitatixing" unicode="&#58985;" d="M519.09111473 182.53598670999997c17.30005758 0 33.10129529 9.41711347 42.05886493 24.06595668H476.19800101c8.21522962-14.79731119 24.12958582-24.06595667 42.89311372-24.06595668zM677.33679867 299.50756517c-5.07619179 5.35191809-5.07619179 11.24821887-5.07619182 14.11153041V420.46657006c0 87.02346082-68.71240684 157.81441973-153.16949212 157.81441973-84.47829501 0-153.19777174-70.79802881-153.19777176-157.81441973v-106.84747448c0-4.29143234-1.71798692-10.38569047-4.99842282-14.01255173l-53.07377696-62.12325535-0.0070699-1.6684976c0-4.7863257 3.5278826-7.99606257 6.82245835-7.99606257h408.88088657c3.29457573 0 6.82245835 3.20973687 6.82245833 7.99606257 0 0.53731278 0 1.20895375-0.02827961 1.71091703l-52.97479826 61.98185724zM519.09111473 643.5927723m-12.62685036 0a12.62685036 12.62685036 0 1 1 25.25370072 0 12.62685036 12.62685036 0 1 1-25.25370072 0ZM512 871.82344596c-269.41994029 0-487.82344596-218.41057559-487.82344596-487.82344596s218.4035057-487.82344596 487.82344596-487.82344596c269.41287036 0 487.82344596 218.41057559 487.82344596 487.82344596s-218.41057559 487.82344596-487.82344596 487.82344596z m7.09111473-194.39410825a33.87898483 33.87898483 0 0 0 33.83656541-33.84363531c0-18.65747934-15.17908606-33.82949549-33.83656541-33.82949549s-33.83656539 15.17201616-33.8365654 33.82949549a33.87898483 33.87898483 0 0 0 33.8365654 33.84363531z m204.42630348-470.82739432h-138.80344514c-10.77453524-27.00703715-36.67866722-45.27567171-65.62285834-45.27567171-30.90962471 0-56.41077211 17.87978978-66.01877302 45.27567171H314.62946172c-15.45481236 0-28.03217338 13.1076039-28.03217338 29.20577761 0 2.84917172 0 7.16181378 2.33306867 11.75018214a10.88765372 10.88765372 0 0 0 1.39277128 2.09269188l54.18375202 63.41704799a4.80046551 4.80046551 0 0 1 0.18381754 0.75647982l-0.00706991 106.63537733c0 98.71708371 78.24263879 179.02413476 174.40748679 179.02413475 96.1577781 0 174.37920717-80.30705105 174.37920717-179.02413475v-106.84747449l-0.0070699-0.33935543 54.38170935-63.62914512c0.5585225-0.65750117 1.03927604-1.37863148 1.42812083-2.16339094 2.26943951-4.56008874 2.26943951-8.84445117 2.26943951-11.67948308 0.0070699-16.09110381-12.5702911-29.19870771-28.02510348-29.19870771z"  horiz-adv-x="1024" />

    
    <glyph glyph-name="tixing--kehutixing" unicode="&#58986;" d="M577.35420194 181.31996305999996c-3.46425346 0-6.70933986 1.6897073-8.68891326 4.53180912l-28.31496958 40.52469552a10.60485751 10.60485751 0 0 0-1.44933052 3.12489804c-8.61821422-3.85309823-17.68890235-6.02355906-27.00703715-6.02355908-9.10603765 0-17.95755874 2.12804142-26.39195542 5.81146192-0.30400591-0.97564689-0.7069905-1.93008406-1.31500234-2.8208921l-27.6574684-40.52469553a10.60485751 10.60485751 0 0 0-8.75961232-4.62371789H423.69688639c-13.49644867 0-22.98426122-0.17674763-30.60561882-2.01492292a235.3147185 235.3147185 0 0 1 118.91580233-32.14685811 235.37834764 235.37834764 0 0 1 119.69349189 32.59226212c-6.13667756 1.51295967-13.87822354 1.64728787-25.44458814 1.57658881l-28.90177171-0.0070699zM585.4563131 493.67543648c-8.1940199 11.87037052-21.45009181 18.40296276-37.32909849 18.40296276-14.3731169 0-30.07537593-5.2175899-46.66844298-15.50430169a10.60485751 10.60485751 0 0 0-5.59229487-1.59072863c-61.57180276 0-61.57180276-23.23170787-61.57180278-43.72736253 0-1.39984118-0.2757263-2.78554256-0.81303906-4.07226528-0.18381754-0.45247391-19.35033002-48.44298916 3.36527479-100.23004338 0.58680212-1.33621204 0.89080803-2.79968239 0.89080803-4.26315274 0-47.62995008 38.11385793-98.00302332 74.14916379-98.00302329 36.03530586 0 74.14209389 50.37307323 74.14209387 98.00302329 0 3.16024753 1.40691109 6.15788726 3.84602833 8.1657403 17.2010789 14.23878868 7.44460998 71.80195533 0.02120972 97.44450081a10.58364781 10.58364781 0 0 0 0.26865638 6.70933986 41.92453674 41.92453674 0 0 1-4.70855673 38.66531052zM512 620.84181797c-130.59528543 0-236.84181797-106.24653254-236.84181797-236.84181797 0-78.17193973 38.0855783-147.58426717 96.65267144-190.73896737 14.83266071 9.25450566 31.48935694 9.27571537 51.87896299 9.27571537h18.47366182l24.50429077 35.90097767c0.33228555 0.48782343 0.72113031 0.91201775 1.11704499 1.32914215-29.48857381 22.36917947-50.39428294 64.02505982-51.22853173 100.6966571-22.65904557 53.70299849-7.35270122 102.18840707-3.45718355 112.80740441 0.40298459 32.47914364 11.14924021 62.08083593 79.76973827 62.91508472 19.08874354 11.35426746 37.66845391 17.10917014 55.25130768 17.10917013 22.72267471 0 42.68808649-10.04633503 54.78469396-27.56555965a63.11304207 63.11304207 0 0 0 8.27885876-54.79883376c4.70855675-17.43438576 20.80673045-85.06509714-4.04398564-112.79326459-1.61900825-35.92925728-22.10052307-76.07217795-50.75484811-98.03837283 0.48782343-0.46661374 0.94736727-0.9897867 1.34328194-1.56244901l25.15472205-35.99995634 23.30240693 0.00706992c18.67868905 0.09897867 32.95989718 0.04241942 46.26545841-9.09189786C710.86935813 236.61369018000005 748.84181797 305.94824864 748.84181797 384c0 130.59528543-106.24653254 236.84181797-236.84181797 236.84181797zM512 871.82344596c-269.41287036 0-487.82344596-218.41057559-487.82344596-487.82344596s218.41057559-487.82344596 487.82344596-487.82344596 487.82344596 218.41057559 487.82344596 487.82344596-218.41057559 487.82344596-487.82344596 487.82344596z m0-745.87497896c-142.28890832 0-258.051533 115.7626247-258.051533 258.051533S369.71109168 642.0515330000001 512 642.0515330000001s258.051533-115.7626247 258.051533-258.051533-115.7626247-258.051533-258.051533-258.051533z"  horiz-adv-x="1024" />

    
    <glyph glyph-name="kehu--shanchudianhua" unicode="&#58987;" d="M642.90816 405.94944H365.6448a17.92 17.92 0 1 1 0-35.84h277.26848a17.92 17.92 0 1 1-0.00512 35.84zM512 755.2c-204.68224 0-371.2-166.51776-371.2-371.2s166.51776-371.2 371.2-371.2 371.2 166.51776 371.2 371.2-166.51776 371.2-371.2 371.2z m0-706.56c-184.91904 0-335.36 150.44096-335.36 335.36 0 184.91904 150.44096 335.36 335.36 335.36 184.91904 0 335.36-150.44096 335.36-335.36 0-184.91904-150.44096-335.36-335.36-335.36z"  horiz-adv-x="1024" />

    
    <glyph glyph-name="kehu--tianjiakehu" unicode="&#58988;" d="M808.13568 401.92a17.92 17.92 0 0 1-17.92-17.92c0-105.80992-53.84704-199.27552-135.57248-254.44352-17.54112 12.672-36.26496 12.61056-59.2896 12.544l-24.91392-0.01024-26.5984 38.0928c32.8704 27.2128 55.44448 73.4464 57.89184 115.66592 28.90752 34.81088 12.01152 110.48448 5.13536 136.12032a80.3584 80.3584 0 0 1-10.99264 68.22912c-15.3856 22.28736-40.71936 35.06688-69.50912 35.06688-21.48864 0-44.0576-6.84032-67.15392-20.352-67.712-1.11104-97.47456-25.00608-98.6368-79.12448-5.24288-14.73024-22.37952-72.43264 4.13184-136.21248 1.28512-43.42784 24.448-91.89376 58.57792-119.84384l-25.68704-37.64736h-19.13856c-24.77568 0-46.53568-0.03584-65.88928-12.76416C230.64576 184.46848 176.64 278.0416 176.64 384c0 169.1648 137.6256 306.7904 306.78528 306.7904 61.47072 0 120.7808-18.11968 171.52-52.39296a17.92 17.92 0 1 1 20.06016 29.69088C618.33216 706.3808 552.07936 726.6304 483.4304 726.6304c-188.928 0-342.6304-153.70752-342.6304-342.6304s153.7024-342.6304 342.62528-342.6304c188.928 0 342.62528 153.70752 342.62528 342.6304a17.92 17.92 0 0 1-17.91488 17.92z m-407.6544-98.53952c0 2.47808-0.51712 4.93056-1.5104 7.19872-26.04032 59.3408-4.1728 114.48832-3.97312 114.97984 0.90624 2.18112 1.37728 4.52096 1.37728 6.88128 0 24.00256 0 46.67392 67.87584 46.67392 3.33312 0 6.6048 0.93184 9.44128 2.688 18.87232 11.68896 36.58752 17.61792 52.66944 17.61792 17.08544 0 31.29344-6.95296 40.0128-19.584a44.4928 44.4928 0 0 0 5.00736-41.04704 17.88416 17.88416 0 0 1-0.4608-11.3408c10.94144-37.76512 17.60768-97.09568 1.68448-110.26432a17.92 17.92 0 0 1-6.49728-13.80864c0-52.992-43.35104-111.17568-82.82112-111.17568-39.46496 0.00512-82.80576 58.1888-82.80576 111.1808z m-45.90592-197.69856c6.55872 0.512 14.336 0.56832 23.87968 0.56832h28.60544a17.90976 17.90976 0 0 1 14.80192 7.81824l32.45056 47.55456c9.2672-3.38944 18.97472-5.25824 28.97408-5.25824 10.23488 0 20.15232 1.97632 29.6192 5.51936l33.50528-47.9744a17.90464 17.90464 0 0 1 14.68928-7.65952l34.36544 0.01024c7.10656 0.03072 12.81536 0.01536 17.60256-0.22016a304.9216 304.9216 0 0 0-129.64352-28.83072 304.8448 304.8448 0 0 0-128.84992 28.47232zM865.28 555.83744h-91.58656V647.424a17.92 17.92 0 1 1-35.84 0v-91.58656h-91.58656a17.92 17.92 0 1 1 0-35.84h91.58656v-91.59168a17.92 17.92 0 1 1 35.84 0V519.99744H865.28a17.92 17.92 0 1 1 0 35.84z"  horiz-adv-x="1024" />

    
    <glyph glyph-name="kehu--tianjiabiaoqian" unicode="&#58989;" d="M865.28 401.95072h-335.3344V737.28a17.92 17.92 0 1 1-35.84 0v-335.32928H158.72a17.92 17.92 0 1 1 0-35.84h335.3856V30.72a17.92 17.92 0 1 1 35.84 0v335.39072H865.28a17.92 17.92 0 1 1 0 35.84z"  horiz-adv-x="1024" />

    
    <glyph glyph-name="shanchu" unicode="&#58990;" d="M865.28512 584.45824H647.68v23.30624c0 57.57952-38.9632 106.22464-85.08416 106.22464H436.66944c-46.26944 0-83.91168-47.65184-83.91168-106.22464v-23.30624H158.71488a17.92 17.92 0 1 1 0-35.84h88.064v-397.60384c0-52.5824 36.37248-97.00352 79.42656-97.00352h363.52c41.74336 0 75.70944 43.51488 75.70944 97.00352V548.61824h99.85024a17.92 17.92 0 1 1 0 35.84z m-476.68736 23.30624c0 37.49376 22.46144 70.38464 48.07168 70.38464h125.9264c25.77408 0 49.24416-33.54624 49.24416-70.38464v-23.30624H388.59776v23.30624z m340.99712-456.75008c0-32.58368-18.63168-61.16352-39.86944-61.16352h-363.52c-22.4 0-43.58656 29.72672-43.58656 61.16352V548.61824h446.976v-397.60384zM406.01088 396.04224a17.92 17.92 0 0 1-17.92-17.92v-117.77024a17.92 17.92 0 1 1 35.84 0v117.77024a17.92 17.92 0 0 1-17.92 17.92zM594.432 396.04224a17.92 17.92 0 0 1-17.92-17.92v-117.77024a17.92 17.92 0 1 1 35.84 0v117.77024a17.92 17.92 0 0 1-17.92 17.92z"  horiz-adv-x="1024" />

    
    <glyph glyph-name="dianhuaben" unicode="&#58991;" d="M341.39136 234.89536v-8.9344a17.92 17.92 0 0 1 17.92-17.92h348.0576a17.92 17.92 0 0 1 17.92 17.92v8.9344c0 58.15296-84.20352 100.96128-126.97088 115.80416 7.17312 10.07104 15.04768 23.68 19.9168 39.86432 6.61504 5.35552 11.91424 13.04064 15.3088 22.34368 4.88448 13.27104 6.7328 33.1776-2.12992 49.5104 1.8688 20.03456 3.3024 59.74016-22.51776 88.49408-17.38752 19.37408-42.8032 29.19936-75.53536 29.19936-32.7424 0-58.1632-9.82528-75.53536-29.184-25.84576-28.7232-24.4224-68.44416-22.5536-88.4992-8.86272-16.34816-7.0144-36.28032-2.13504-49.5616 3.40992-9.28256 8.704-16.95232 15.30368-22.31296 4.92032-16.33792 12.98432-30.08 19.93216-39.8592-42.7776-14.83776-126.98112-57.64608-126.98112-115.79904z m151.53152 85.72928a17.9456 17.9456 0 0 1 12.66176 9.85088c2.8416 5.94432 3.76832 14.69952 4.03456 18.19136a17.93024 17.93024 0 0 1-4.51584 13.32224c-4.28032 4.78208-18.63168 22.06208-23.65952 43.81184a17.92 17.92 0 0 1-9.78944 12.16c-0.99328 0.47104-3.14368 2.5344-4.88448 7.2704-2.9184 7.95136-2.50368 17.2288 0.96256 21.5808 2.82112 3.5328 4.1984 8.00256 3.86048 12.51328l-0.04096 0.55808a23.27552 23.27552 0 0 1-0.05632 0.59392c-1.36192 12.7232-4.98688 46.52544 12.98432 66.49344 10.30656 11.47904 26.752 17.30048 48.88064 17.30048 22.1184 0 38.55872-5.82144 48.86528-17.30048 17.90464-19.93728 14.35136-53.6064 12.96896-66.47296a17.90464 17.90464 0 0 1 3.75808-13.71136c3.40992-4.26496 3.82976-13.70624 0.9472-21.54496-1.73056-4.736-3.8912-6.784-4.79232-7.20896a17.8944 17.8944 0 0 1-9.87136-12.19072c-4.87936-21.0432-18.20672-37.71392-23.71072-43.904a17.94048 17.94048 0 0 1-4.46976-13.312c0.34304-4.3776 1.33632-12.5696 4.096-18.2528a17.95072 17.95072 0 0 1 12.61056-9.74336c27.41248-5.47328 102.57408-41.38496 114.176-76.74368H378.74688c11.60192 35.3536 86.76352 71.26528 114.176 76.73856zM151.04 499.2h102.4a17.92 17.92 0 1 1 0 35.84h-102.4a17.92 17.92 0 1 1 0-35.84zM151.04 345.6h102.4a17.92 17.92 0 1 1 0 35.84h-102.4a17.92 17.92 0 1 1 0-35.84zM271.36 230.4a17.92 17.92 0 0 1-17.92 17.92h-102.4a17.92 17.92 0 1 1 0-35.84h102.4A17.92 17.92 0 0 1 271.36 230.4zM823.48032 761.17504H243.2c-38.11328 0-69.12-31.00672-69.12-69.12v-80.20992a17.92 17.92 0 1 1 35.84 0V692.05504c0 18.35008 14.92992 33.28 33.28 33.28h580.28032c18.35008 0 33.28-14.92992 33.28-33.28v-616.11008c0-18.35008-14.92992-33.28-33.28-33.28H243.2a33.32096 33.32096 0 0 0-33.28 33.28v56.32a17.92 17.92 0 1 1-35.84 0v-56.32c0-38.11328 31.00672-69.12 69.12-69.12h580.28032c38.11328 0 69.12 31.00672 69.12 69.12V692.05504c0 38.11328-31.00672 69.12-69.12 69.12z"  horiz-adv-x="1024" />

    
    <glyph glyph-name="shezhi--guanyuwomen" unicode="&#58992;" d="M512 746.19904c-199.72096 0-362.19904-162.47808-362.19904-362.19904S312.27904 21.80096 512 21.80096s362.19904 162.47808 362.19904 362.19904S711.72096 746.19904 512 746.19904z m0-684.16c-177.52576 0-321.95584 144.43008-321.95584 321.96096 0 177.52576 144.43008 321.95584 321.95584 321.95584 177.53088 0 321.96096-144.43008 321.96096-321.95584 0-177.53088-144.43008-321.96096-321.96096-321.96096zM511.71328 590.39232c-12.16512 0-22.04672-3.80416-29.64992-11.40736-7.98208-7.22432-11.97056-16.91648-11.97056-29.07648 0-11.78624 3.9936-21.66272 11.97056-29.6448 8.35584-7.60832 18.24256-11.40736 29.64992-11.40736s21.28384 3.79392 29.6448 11.40736c8.36096 8.35584 12.544 18.24256 12.544 29.6448 0 12.16-3.98848 21.85216-11.97568 29.07648-7.6032 7.59808-17.664 11.40736-30.21312 11.40736zM481.49504 472.3712h60.43136v-294.7584H481.49504z"  horiz-adv-x="1024" />

    
    <glyph glyph-name="shezhi--tuijianhongbao" unicode="&#58994;" d="M744.54016 755.2H284.57984c-51.9168 0-92.57984-36.26496-92.57984-82.55488v-567.05024c0-48.5632 44.12928-92.79488 92.57984-92.79488h459.96032c47.4112 0 87.45984 42.496 87.45984 92.79488V672.64512c0 47.06304-37.60128 82.55488-87.45984 82.55488z m0-35.84c9.7792 0 18.65216-2.13504 26.20416-5.90336-67.64032-58.47552-165.92896-91.97568-270.93504-91.97568-98.18624 0-177.30048 28.38016-248.25856 88.97536a66.65216 66.65216 0 0 0 33.02912 8.90368h459.96032zM796.16 105.59488c0-29.80864-24.60672-56.95488-51.61984-56.95488H284.57984c-28.63616 0-56.73984 28.2112-56.73984 56.95488V672.64512c0 3.46112 0.44544 6.75328 1.23904 9.89184 76.70272-65.11104 165.35552-96.896 270.73024-96.896 113.47968 0 220.24704 36.66944 294.32832 100.67968 1.30048-4.28032 2.0224-8.85248 2.0224-13.6704v-567.05536zM622.08 355.85536h-71.10144l62.03904 79.16032a17.92 17.92 0 1 1-27.33056 23.18336l-74.2144-93.51168-61.69088 90.66496a17.92 17.92 0 1 1-29.62944-20.15744l53.98528-79.33952H407.04a17.92 17.92 0 1 1 0-35.84h87.04v-36.56704l-85.72416-0.512c-9.89696-0.08704-17.85344-7.63392-17.7664-17.536 0.08704-9.85088 8.0896-17.07008 17.92-17.07008h0.1536l85.41696 0.40448v-56.72448a17.92 17.92 0 1 1 35.84 0v56.89344l85.72416 0.40448c9.89696 0.09216 17.84832 7.38304 17.7664 17.28512-0.08704 9.84576-8.0896 17.57696-17.91488 17.57696h-0.15872l-85.41696-0.512v36.352h92.16a17.92 17.92 0 1 1 0 35.84512z"  horiz-adv-x="1024" />

    
    <glyph glyph-name="sousuo" unicode="&#58995;" d="M877.57824 44.1088l-226.76992 214.02112c48.78336 52.79744 78.68928 123.42272 78.68928 200.96512 0 163.07712-132.06016 295.74656-294.38464 295.74656-162.28352 0-294.31296-132.66944-294.31296-295.74656 0-163.06176 132.02944-295.71584 294.31808-295.71584 72.27392 0 138.50624 26.34752 189.7984 69.9136l228.06528-215.2448c3.46624-3.27168 7.8848-4.8896 12.29312-4.8896a17.91488 17.91488 0 0 1 12.30336 30.9504zM176.64 459.09504c0 143.31392 115.95264 259.90656 258.47808 259.90656 142.56128 0 258.54464-116.59264 258.54464-259.90656 0-143.29344-115.97824-259.87584-258.54464-259.87584-142.52544 0-258.47808 116.5824-258.47808 259.87584z"  horiz-adv-x="1024" />

    
    <glyph glyph-name="tixing--dakai" unicode="&#58996;" d="M852.28544 459.59168l-332.69248-350.45888L171.43808 459.8784a17.92 17.92 0 1 1-25.43616-25.25184l361.15456-363.84256a17.91488 17.91488 0 0 1 12.71808-5.29408h0.19968a17.93024 17.93024 0 0 1 12.79488 5.5808l345.40544 363.84768a17.92 17.92 0 0 1-25.98912 24.67328zM507.15648 308.11648a17.91488 17.91488 0 0 1 12.71808-5.29408h0.19968a17.93024 17.93024 0 0 1 12.79488 5.5808L878.27456 672.256a17.92 17.92 0 0 1-25.98912 24.67328l-332.69248-350.464-348.15488 350.75072a17.92 17.92 0 1 1-25.43616-25.25184l361.15456-363.84768z"  horiz-adv-x="1024" />

    
    <glyph glyph-name="tixing--fanhuijintian" unicode="&#58997;" d="M512.00512 737.28C316.89216 737.28 158.72 579.10784 158.72 383.98976 158.72 188.88192 316.89216 30.72 512.00512 30.72 707.10784 30.72 865.28 188.88192 865.28 383.98976 865.28 579.10784 707.10784 737.28 512.00512 737.28z m173.01504-413.07136c-34.21184-82.16064-100.59776-144.3584-199.17824-186.60864l-18.10944 23.1424c89.52832 37.2224 151.3984 90.19904 185.6 158.94016H334.94528v25.6512h350.07488v-21.12512zM451.6352 443.91424l14.58688 22.12864a620.52352 620.52352 0 0 0 115.6864-70.41536l-15.08864-23.1424c-37.89824 30.5152-76.288 54.3232-115.18464 71.42912z m278.64576-48.28672c-84.82816 43.25376-157.42976 99.74784-217.78432 169.4976-56.00256-66.06336-128.76288-122.7264-218.2912-169.99936l-13.57824 25.1392c89.1904 45.94176 163.29216 102.77376 222.31552 170.51136h19.10784c64.72192-72.42752 138.81856-129.1008 222.32064-170.00448l-14.09024-25.14432z"  horiz-adv-x="1024" />

    
    <glyph glyph-name="shezhi--shiyongbangzhu" unicode="&#58998;" d="M512 755.2c-204.68224 0-371.2-166.51776-371.2-371.2s166.51776-371.2 371.2-371.2 371.2 166.51776 371.2 371.2-166.51776 371.2-371.2 371.2z m0-706.56c-184.91904 0-335.36 150.44096-335.36 335.36 0 184.91904 150.44096 335.36 335.36 335.36 184.91904 0 335.36-150.44096 335.36-335.36 0-184.91904-150.44096-335.36-335.36-335.36zM515.81952 241.15712c-12.56448 0-22.57408-3.93216-30.0288-11.78112-8.64256-7.45984-12.9536-17.46944-12.9536-30.02368 0-11.776 4.31616-21.7856 12.9536-30.0288 7.84896-8.2432 17.85856-12.3648 30.0288-12.3648 11.78112 0 22.1696 3.92192 31.21152 11.776 8.23808 8.2432 12.35968 18.44736 12.35968 30.6176 0 12.55424-4.1216 22.56384-12.35968 30.02368-7.8592 7.84896-18.25792 11.78112-31.21152 11.78112zM525.82912 585.6c-43.1872 0-77.1328-12.5696-101.8624-37.6832-25.12384-24.7296-37.6832-58.49088-37.6832-101.2736h62.4128c0 26.2912 5.2992 46.5152 15.8976 60.6464 11.776 16.4864 31.00672 24.7296 57.70752 24.7296 21.1968 0 37.67808-5.888 49.4592-17.664 11.38176-12.17024 17.07008-28.2624 17.07008-48.2816 0-14.9248-5.2992-29.24544-15.89248-42.9824l-10.0096-11.1872c-36.5056-32.58368-58.88-56.91904-67.1232-73.00608-7.46496-14.9248-11.1872-33.5616-11.1872-55.936v-10.0096h63.0016v10.0096c0 14.90944 3.13344 28.0576 9.42592 39.4496 5.0944 10.19904 13.14304 20.20864 24.1408 30.02368 27.4688 23.55712 44.16 38.8608 50.04288 45.93152 14.52032 19.22048 21.7856 43.17184 21.7856 71.82848 0 35.328-11.58144 63.3856-34.7392 84.1984-23.168 20.79744-53.98016 31.2064-92.44672 31.2064z"  horiz-adv-x="1024" />

    
    <glyph glyph-name="kehu--tianjiadianhua" unicode="&#59001;" d="M642.90816 405.94944h-120.704V526.65856a17.92 17.92 0 1 1-35.84 0v-120.70912H365.6448a17.92 17.92 0 1 1 0-35.84h120.72448v-120.72448a17.92 17.92 0 1 1 35.84 0v120.72448h120.704a17.92 17.92 0 1 1-0.00512 35.84zM512 755.2c-204.68224 0-371.2-166.51776-371.2-371.2s166.51776-371.2 371.2-371.2 371.2 166.51776 371.2 371.2-166.51776 371.2-371.2 371.2z m0-706.56c-184.91904 0-335.36 150.44096-335.36 335.36 0 184.91904 150.44096 335.36 335.36 335.36 184.91904 0 335.36-150.44096 335.36-335.36 0-184.91904-150.44096-335.36-335.36-335.36z"  horiz-adv-x="1024" />

    
    <glyph glyph-name="kehu--dadianhua" unicode="&#59003;" d="M734.2336 12.80512c-79.5904 0-227.64544 55.0912-382.98112 210.33984-189.18912 189.2352-249.90208 392.33536-186.06592 456.26368 4.352 4.352 8.7808 9.0112 13.33248 13.78816 26.27584 27.6224 58.97728 61.99296 101.26336 61.99296 31.37536 0 61.40928-18.40128 91.80672-56.25856 80.57344-100.32128 53.06368-140.86656 1.89952-191.26784-2.55488-2.51392-5.1456-5.0688-7.7568-7.68512-7.27552-7.2704-1.11616-27.77088 16.47104-54.82496 17.94048-27.5968 47.6416-62.16704 88.27392-102.73792 93.7984-93.73696 133.62176-107.72992 149.01248-107.72992 4.96128 0 7.14752 1.5104 8.6272 2.98496 2.59584 2.59584 5.15584 5.19168 7.66976 7.74656 24.70912 25.08288 48.0512 48.77312 84.83328 48.77312 29.57824 0 63.4112-16.11264 106.45504-50.70848 36.53632-29.37344 54.90176-58.35264 56.15104-88.6016 1.81248-43.87328-33.58208-77.49632-62.01856-104.51456a761.8048 761.8048 0 0 1-13.69088-13.20448c-15.91808-15.93344-41.26208-24.35584-73.28256-24.35584zM279.7824 719.35488c-26.91072 0-52.61824-27.01824-75.29984-50.86208-4.7616-5.00736-9.40032-9.8816-13.94688-14.42304-37.20704-37.25824-5.2736-214.20032 186.05568-405.5808 138.12224-138.05056 279.15264-199.84384 357.64224-199.84384 21.98528 0 39.00928 4.92032 47.93344 13.85984 4.5312 4.52096 9.37472 9.12384 14.34624 13.84448 24.39168 23.168 52.03456 49.4336 50.8928 77.05088-0.78336 19.04128-15.18592 39.94624-42.79296 62.14656-35.83488 28.8-63.31392 42.8032-83.99872 42.8032-20.77184 0-35.33824-13.76256-59.29984-38.08256a1616.6912 1616.6912 0 0 0-7.8848-7.9616c-8.84736-8.81664-20.57728-13.46048-33.9456-13.46048-38.24128 0-93.63968 37.56544-174.34112 118.21568-42.39872 42.3424-73.69216 78.86336-92.99456 108.55936-29.13792 44.83072-33.1008 78.37696-11.77088 99.70688a1609.1648 1609.1648 0 0 0 7.95136 7.86944c41.0368 40.42752 61.63456 60.71808-4.68992 143.29856-22.8352 28.4416-44.32384 42.85952-63.85664 42.85952z"  horiz-adv-x="1024" />

    
    <glyph glyph-name="tixing--shouqi" unicode="&#59004;" d="M852.28544 308.4032l-332.69248 350.45888-348.15488-350.74048a17.92 17.92 0 0 0-25.43616 25.24672l361.15456 363.84256a17.91488 17.91488 0 0 0 12.71808 5.29408h0.19968a17.93024 17.93024 0 0 0 12.79488-5.5808l345.40544-363.84768a17.92 17.92 0 0 0-25.98912-24.67328zM507.15648 459.88352a17.91488 17.91488 0 0 0 12.71808 5.29408h0.19968a17.93024 17.93024 0 0 0 12.79488-5.5808l345.40544-363.8528a17.92 17.92 0 0 0-25.98912-24.67328l-332.69248 350.464-348.15488-350.75072a17.92 17.92 0 0 0-25.43616 25.24672l361.15456 363.8528z"  horiz-adv-x="1024" />

    
    <glyph glyph-name="tixing--tianjiafujian" unicode="&#59005;" d="M390.26176 73.43104c-66.6368 0-129.28 25.94816-176.40448 73.06752-97.24928 97.26976-97.24928 255.53408 0 352.79872l163.73248 163.73248a17.92 17.92 0 1 0 25.344-25.344L239.20128 473.95328c-83.2768-83.29216-83.2768-218.81856 0-302.11584 40.35072-40.35072 93.99808-62.57152 151.06048-62.57152s110.70464 22.2208 151.05024 62.57152l269.85472 269.85984c48.1792 48.18432 48.1792 126.58176 0 174.76608l-6.0672 6.05696a122.73664 122.73664 0 0 1-87.38304 36.20864 122.74176 122.74176 0 0 1-87.37792-36.20352L408.99072 401.19296c-23.0912-23.10656-23.0912-60.70784 0.00512-83.81952 23.10144-23.08096 60.70272-23.08608 83.81952 0.01024l139.47392 139.47392a17.92 17.92 0 0 0 25.33888-25.344l-139.47392-139.47392c-37.08416-37.0688-97.42336-37.05856-134.49728-0.00512-37.06368 37.08416-37.06368 97.41824-0.00512 134.5024l221.34784 221.33248c30.11072 30.11584 70.144 46.70464 112.72704 46.70464s82.62144-16.5888 112.73216-46.70464l6.06208-6.05696c62.1568-62.16192 62.1568-163.29728 0-225.45408l-269.85472-269.85472c-47.11936-47.12448-109.76768-73.07264-176.40448-73.07264z"  horiz-adv-x="1024" />

    
    <glyph glyph-name="kehu--youjian" unicode="&#59006;" d="M826.56256 679.38304H197.43744c-31.232 0-56.63744-25.40544-56.63744-56.63744v-477.49632c0-31.232 25.40544-56.64256 56.63744-56.64256h629.12512c31.232 0 56.64256 25.41056 56.64256 56.64256V622.75072c-0.00512 31.22688-25.41568 56.63232-56.64256 56.63232zM847.36 145.2544a20.82304 20.82304 0 0 0-20.80256-20.80256H197.43744a20.82304 20.82304 0 0 0-20.79744 20.80256V622.75072a20.81792 20.81792 0 0 0 20.79744 20.79744h629.12512a20.82304 20.82304 0 0 0 20.80256-20.79744v-477.49632zM777.71264 600.77568l-259.29216-225.32096-272.16384 235.0336a17.92 17.92 0 1 1-23.42912-27.12576l283.91936-245.18656a17.89952 17.89952 0 0 1 11.71456-4.35712c4.18816 0 8.38656 1.46432 11.75552 4.39296l271.00672 235.49952a17.92 17.92 0 0 1-23.51104 27.06432z"  horiz-adv-x="1024" />

    
    <glyph glyph-name="tixing--tianjiatixing" unicode="&#59008;" d="M512 737.28c-195.1232 0-353.28-158.16704-353.28-353.28 0-195.10784 158.1568-353.28 353.28-353.28 195.11296 0 353.28 158.17216 353.28 353.28 0 195.11296-158.16704 353.28-353.28 353.28z m130.91328-367.17056h-120.704v-120.71936a17.92 17.92 0 1 0-35.84 0v120.71936h-120.7296a17.92 17.92 0 1 0 0 35.84h120.7296V526.64832a17.92 17.92 0 1 0 35.84 0v-120.69888h120.704a17.92 17.92 0 1 0 0-35.84z"  horiz-adv-x="1024" />

    
    <glyph glyph-name="tixing--guanbi" unicode="&#59009;" d="M547.03616 384l310.98368 310.98368a24.7808 24.7808 0 0 1-35.03616 35.04128L512 419.04128 201.01632 730.02496a24.7808 24.7808 0 0 1-35.03616-35.04128L476.95872 384l-310.97856-310.98368A24.77056 24.77056 0 0 1 183.5008 30.72a24.71936 24.71936 0 0 1 17.52576 7.26016L512 348.96384l310.98368-310.98368a24.6784 24.6784 0 0 1 17.52064-7.26016 24.68864 24.68864 0 0 1 17.51552 7.26016 24.76032 24.76032 0 0 1 0 35.03616L547.03616 384z"  horiz-adv-x="1024" />

    
    <glyph glyph-name="tixing--quanxuan" unicode="&#59010;" d="M512 737.28c-195.09248 0-353.28-158.16704-353.28-353.28 0-195.10784 158.18752-353.28 353.28-353.28 195.10784 0 353.28 158.17216 353.28 353.28 0 195.11296-158.17216 353.28-353.28 353.28z m0-670.72c-175.03744 0-317.44 142.40256-317.44 317.44s142.40256 317.44 317.44 317.44 317.44-142.40256 317.44-317.44-142.40256-317.44-317.44-317.44zM735.6416 511.21152a17.91488 17.91488 0 0 1-25.33888 0l-247.15264-247.15264-131.30752 131.29728a17.91488 17.91488 0 1 1-25.33888-25.344l143.9744-143.96416c3.50208-3.50208 8.08448-5.248 12.672-5.248s9.16992 1.74592 12.672 5.248l259.81952 259.82464a17.92 17.92 0 0 1 0 25.33888z"  horiz-adv-x="1024" />

    
    <glyph glyph-name="shenqingqiyeban" unicode="&#58999;" d="M457.65632 491.43296h93.33248a17.92 17.92 0 1 1 0 35.84H457.65632a17.92 17.92 0 1 1 0-35.84zM408.31488 527.27296H314.96704a17.92 17.92 0 1 1 0-35.84h93.34272a17.92 17.92 0 0 1 0.00512 35.84zM550.98368 409.10336H457.65632a17.92 17.92 0 1 1 0-35.84h93.33248a17.92 17.92 0 1 1-0.00512 35.84zM408.31488 409.10336H314.96704a17.92 17.92 0 1 1 0-35.84h93.34272a17.92 17.92 0 0 1 0.00512 35.84zM550.98368 290.94912H457.65632a17.92 17.92 0 1 1 0-35.84h93.33248a17.92 17.92 0 1 1-0.00512 35.84zM408.31488 290.94912H314.96704a17.92 17.92 0 1 1 0-35.84h93.34272a17.92 17.92 0 0 1 0.00512 35.84zM710.85568 170.82368a17.92 17.92 0 0 1 17.92 17.92v100.11136a17.92 17.92 0 1 1-35.84 0v-100.11136a17.92 17.92 0 0 1 17.92-17.92zM710.85568 327.09632a17.92 17.92 0 0 1 17.92 17.92V436.56704a17.92 17.92 0 1 1-35.84 0v-91.55072a17.92 17.92 0 0 1 17.92-17.92zM865.28 148.8384h-48.65024V509.35296a17.92 17.92 0 0 1-17.92 17.92h-166.89664V637.0816a17.92 17.92 0 0 1-17.92 17.92H247.02464a17.92 17.92 0 0 1-17.92-17.92v-488.23808H158.72a17.92 17.92 0 1 1 0-35.84h706.56a17.92 17.92 0 1 1 0 35.83488z m-84.49024 342.59456v-342.59456h-148.97664V491.43296h148.97664zM264.94464 619.1616h331.02848v-470.31808H264.94464V619.1616z"  horiz-adv-x="1024" />

    
    <glyph glyph-name="daohang--shezhi2" unicode="&#59000;" d="M881.04448 454.67136a17.92512 17.92512 0 0 1-10.96704 13.19424c-34.78528 13.83424-64.22528 39.23456-82.88256 71.5008-18.62656 32.2816-25.89184 70.48192-20.46976 107.56608a17.92 17.92 0 0 1-5.95456 16.1024c-35.92704 31.32928-78.65856 56.03328-123.57632 71.4496a17.9712 17.9712 0 0 1-16.95232-2.90816c-29.34272-23.2704-66.06848-36.08576-103.40864-36.08576-37.3248 0-74.07616 12.82048-103.48544 36.096a17.92 17.92 0 0 1-16.9472 2.89792c-44.86656-15.42144-87.5776-40.12544-123.52512-71.44448a17.93536 17.93536 0 0 1-5.95968-16.10752c5.4272-37.07904-1.85344-75.27936-20.50048-107.56608-18.60608-32.256-48.04608-57.64608-82.89792-71.5008a17.92 17.92 0 0 1-10.97216-13.22496 373.62176 373.62176 0 0 1-6.94784-71.38816c0-23.7056 2.33984-47.71328 6.94784-71.35232a17.90976 17.90976 0 0 1 10.97216-13.22496c34.83136-13.83424 64.27136-39.23456 82.90304-71.51616 18.64192-32.2816 25.92256-70.48704 20.49536-107.5712a17.92512 17.92512 0 0 1 5.95968-16.10752c35.93216-31.30368 78.64832-56.00256 123.52512-71.41888a17.96096 17.96096 0 0 1 16.94208 2.89792c29.43488 23.28576 66.18624 36.11136 103.49056 36.11136 37.31456 0 74.04544-12.82048 103.41376-36.10112 4.78208-3.7888 11.1616-4.87936 16.9472-2.90304 44.92288 15.4112 87.65952 40.10496 123.57632 71.424a17.91488 17.91488 0 0 1 5.95456 16.1024c-5.42208 37.08928 1.8432 75.29472 20.4544 107.55584 18.68288 32.29184 48.12288 57.69728 82.90304 71.53664a17.92 17.92 0 0 1 10.9568 13.18912 370.23744 370.23744 0 0 1 0.00512 142.7968z m-33.4848-126.65856c-38.17472-17.45408-70.38976-46.60736-91.41248-82.93888-20.95104-36.33152-30.08-78.80192-26.09152-120.64256a339.84 339.84 0 0 0-95.63648-55.29088c-34.22208 24.41728-75.59168 37.76512-117.58592 37.76512-41.97888 0-83.36384-13.34272-117.632-37.76512a340.4032 340.4032 0 0 0-95.61088 55.29088c3.98848 41.84576-5.15584 84.32128-26.13248 120.64256-20.9664 36.3264-53.17632 65.47456-91.40736 82.93376a336.67584 336.67584 0 0 0-4.61312 55.23968c0 18.34496 1.55136 36.89984 4.61312 55.2704 38.25152 17.46944 70.46144 46.6176 91.40736 82.9184 20.98176 36.3264 30.12096 78.80192 26.13248 120.63744a340.54656 340.54656 0 0 0 95.60576 55.31648c34.24768-24.41216 75.63776-37.75488 117.63712-37.75488 42.01472 0 83.38432 13.34272 117.58592 37.75488a339.74784 339.74784 0 0 0 95.63648-55.31136c-3.98848-41.83552 5.14048-84.30592 26.10176-120.64768 21.00736-36.32128 53.21728-65.46432 91.40736-82.91328a334.55616 334.55616 0 0 0-0.00512-110.50496zM521.66656 527.04256c-77.29664 0-140.18048-62.88896-140.18048-140.19584 0-77.30176 62.88384-140.1856 140.18048-140.1856 77.312 0 140.2112 62.88384 140.2112 140.1856-0.00512 77.30688-62.90432 140.19584-140.2112 140.19584z m0-244.53632c-57.53344 0-104.34048 46.81216-104.34048 104.3456 0 57.54368 46.80704 104.35584 104.34048 104.35584 57.5488 0 104.3712-46.81216 104.3712-104.35584-0.00512-57.53856-46.8224-104.3456-104.3712-104.3456z"  horiz-adv-x="1024" />

    
    <glyph glyph-name="daohang--shezhi3" unicode="&#59002;" d="M521.66656 491.20256c-57.53344 0-104.34048-46.81216-104.34048-104.35584 0-57.53344 46.80704-104.3456 104.34048-104.3456 57.5488 0 104.3712 46.81216 104.3712 104.3456-0.00512 57.54368-46.8224 104.35584-104.3712 104.35584zM881.04448 454.67136a17.92512 17.92512 0 0 1-10.96704 13.19424c-34.78528 13.83424-64.22528 39.23456-82.88256 71.5008-18.62656 32.2816-25.89184 70.48192-20.46976 107.56608a17.92 17.92 0 0 1-5.95456 16.1024c-35.92704 31.32928-78.65856 56.03328-123.57632 71.4496a17.9712 17.9712 0 0 1-16.95232-2.90816c-29.34272-23.2704-66.06848-36.08576-103.40864-36.08576-37.3248 0-74.07616 12.82048-103.48544 36.096a17.92 17.92 0 0 1-16.9472 2.89792c-44.86656-15.42144-87.5776-40.12544-123.52512-71.44448a17.93536 17.93536 0 0 1-5.95968-16.10752c5.4272-37.07904-1.85344-75.27936-20.50048-107.56608-18.60608-32.256-48.04608-57.64608-82.89792-71.5008a17.92 17.92 0 0 1-10.97216-13.22496 373.62176 373.62176 0 0 1-6.94784-71.38816c0-23.7056 2.33984-47.71328 6.94784-71.35232a17.90976 17.90976 0 0 1 10.97216-13.22496c34.83136-13.83424 64.27136-39.23456 82.90304-71.51616 18.64192-32.2816 25.92256-70.48704 20.49536-107.5712a17.92512 17.92512 0 0 1 5.95968-16.10752c35.93216-31.30368 78.64832-56.00256 123.52512-71.41888a17.96096 17.96096 0 0 1 16.94208 2.89792c29.43488 23.28576 66.18624 36.11136 103.49056 36.11136 37.31456 0 74.04544-12.82048 103.41376-36.10112 4.78208-3.7888 11.1616-4.87936 16.9472-2.90304 44.92288 15.4112 87.65952 40.10496 123.57632 71.424a17.91488 17.91488 0 0 1 5.95456 16.1024c-5.42208 37.08928 1.8432 75.29472 20.4544 107.55584 18.68288 32.29184 48.12288 57.69728 82.90304 71.53664a17.92 17.92 0 0 1 10.9568 13.18912 370.23744 370.23744 0 0 1 0.00512 142.7968z m-359.37792-208.00512c-77.29664 0-140.18048 62.88384-140.18048 140.1856 0 77.30688 62.88384 140.19584 140.18048 140.19584 77.312 0 140.2112-62.88896 140.2112-140.19584-0.00512-77.30176-62.90432-140.1856-140.2112-140.1856z"  horiz-adv-x="1024" />

    
    <glyph glyph-name="tixing--yuyin" unicode="&#59007;" d="M511.57947733 229.71733332999997h4.30353067c91.226112 0 162.68765867 71.450624 162.68765867 162.66581334V617.3136213299999c0 90.42875733-72.97979733 163.99837867-162.68765867 163.99837867h-4.30353067C419.96014933 781.312 345.42933333 707.74237867 345.42933333 617.3136213299999v-224.93047466c0-89.69693867 74.530816-162.66581333 166.150144-162.66581334zM383.65866667 617.3136213299999c0 69.34801067 57.38222933 125.76904533 127.92081066 125.76904534h4.30353067c68.62711467 0 124.45832533-56.42103467 124.45832533-125.76904534v-224.93047466c0-69.77399467-54.66794667-124.43648-124.45832533-124.43648h-4.30353067c-70.53858133 0-127.92081067 55.82574933-127.92081066 124.43648V617.3136213299999zM779.272192 422.13102933a19.11466667 19.11466667 0 1 1-38.22933333 0c0-126.29333333-102.744064-229.04285867-229.04285867-229.04285866-126.29333333 0-229.04285867 102.744064-229.04285867 229.04285866a19.11466667 19.11466667 0 1 1-38.22933333 0c0-141.02254933 109.805568-256.802816 248.39236267-266.52945066-0.098304-0.78097067-0.23483733-1.540096-0.23483734-2.342912v-147.456a19.11466667 19.11466667 0 1 1 38.22933334 0v147.456c0 0.79735467-0.13653333 1.56194133-0.23483734 2.342912 138.592256 9.72663467 248.39236267 125.50690133 248.39236267 266.52945066z"  horiz-adv-x="1024" />

    
    <glyph glyph-name="xiangxia" unicode="&#59011;" d="M960 561.4933333399999a17.91488 17.91488 0 0 1-30.58688 12.672L517.12 161.87733334999996l-412.28288 412.28288a17.92 17.92 0 0 1-25.344-25.33888001l424.96-424.96a17.92 17.92 0 0 1 25.33888 0l424.96 424.95488A17.88928 17.88928 0 0 1 960 561.4933333399999z"  horiz-adv-x="1024" />

    
    <glyph glyph-name="tixing--tianjiatupian" unicode="&#59013;" d="M822.25664 58.88H206.86848c-34.57536 0-66.06848 32.48128-66.06848 68.1472V646.0928c0 34.16064 30.25408 63.0272 66.06848 63.0272h615.38816c34.74432 0 60.94336-27.09504 60.94336-63.0272v-519.0656c0-32.77824-23.30112-68.1472-60.94336-68.1472zM206.86848 673.28c-16.1024 0-30.22848-12.70272-30.22848-27.1872v-519.0656c0-15.69792 15.5392-32.3072 30.22848-32.3072h615.38816c14.7968 0 25.10336 17.024 25.10336 32.3072V646.0928c0 15.75424-10.56256 27.1872-25.10336 27.1872H206.86848zM187.53024 251.74528a17.92512 17.92512 0 0 0-8.27904 33.82784l189.92128 98.75968a17.95584 17.95584 0 0 0 18.80576-1.40288l112.44544-81.78176 163.92704 178.176a17.92 17.92 0 0 0 24.38144 1.86368l180.608-144.33792a17.93024 17.93024 0 0 0-22.37952-28.00128l-167.552 133.90848-163.42528-177.62816a17.93024 17.93024 0 0 0-23.72608-2.36032l-116.39296 84.64896-180.08064-93.6448a17.8688 17.8688 0 0 0-8.25344-2.02752zM483.79392 464.47104c-43.38688 0-78.68928 35.3024-78.68928 78.6944s35.3024 78.6944 78.68928 78.6944c43.39712 0 78.70464-35.3024 78.70464-78.6944s-35.30752-78.6944-78.70464-78.6944z m0 121.55392c-23.62368 0-42.84928-19.2256-42.84928-42.8544s19.22048-42.8544 42.84928-42.8544c23.63392 0 42.86464 19.2256 42.86464 42.8544s-19.23072 42.8544-42.86464 42.8544z"  horiz-adv-x="1024" />

    
    <glyph glyph-name="tixing--anzhuluyin" unicode="&#58993;" d="M512 875.51453867c-271.45557333 0-491.52-220.05896533-491.52-491.51453867s220.06442667-491.51453867 491.52-491.51453867 491.52 220.05896533 491.52 491.51453867-220.06442667 491.51453867-491.52 491.51453867zM423.36802133 528.28842667c0 49.758208 40.34286933 90.09015467 90.10107734 90.09015466h0.02184533c49.758208 0 90.10653867-40.33194667 90.10653867-90.09015466v-142.02743467c0-49.758208-40.34833067-90.10107733-90.10653867-90.10107733h-0.02184533c-49.758208 0-90.10107733 40.34286933-90.10107734 90.10107733V528.28842667z m101.03466667-279.052288v-88.69205334a10.92266667 10.92266667 0 0 0-21.84533333 0v89.12896c-79.40232533 7.45472-143.736832 78.30459733-143.736832 165.494784a11.52341333 11.52341333 0 1 0 23.04136533 0c0-79.42417067 59.45207467-144.031744 132.52471467-144.031744 71.630848 0 127.74058667 63.46615467 127.74058666 144.490496a11.52341333 11.52341333 0 1 0 23.04136534 0c0.01092267-90.89297067-60.16750933-161.81384533-140.76586667-166.39044266z"  horiz-adv-x="1024" />

    
    <glyph glyph-name="tixing--dianjibofang" unicode="&#59012;" d="M512 875.51453867c-271.45557333 0-491.52-220.05896533-491.52-491.51453867s220.06442667-491.51453867 491.52-491.51453867 491.52 220.05896533 491.52 491.51453867-220.06442667 491.51453867-491.52 491.51453867z m230.74133333-506.45674667l-322.21866666-186.02939733c-2.113536-1.2288-4.46737067-1.82954667-6.82666667-1.82954667s-4.71313067 0.60074667-6.82666667 1.82954667a13.64241067 13.64241067 0 0 0-6.82666666 11.82378666V566.910976a13.65333333 13.65333333 0 0 0 20.48 11.82378667l322.21866666-186.02939734a13.65333333 13.65333333 0 0 0 0-23.64757333z"  horiz-adv-x="1024" />

    
    <glyph glyph-name="tixing--luyindonghua" unicode="&#59015;" d="M509.81376 625.07008a17.92 17.92 0 1 1-25.20576-25.48224c55.48544-54.88128 86.04672-128.03584 86.04672-205.98784 0-87.13728-38.71232-168.8064-106.19904-224.06656a17.92512 17.92512 0 0 1 22.70208-27.72992c75.83744 62.09536 119.33184 153.87136 119.33184 251.79648 0.00512 87.6032-34.3296 169.80992-96.67584 231.47008zM370.36032 477.20448L261.34528 385.87392l110.12608-95.0784c31.4624 18.93888 52.48512 53.43744 52.48512 92.83072 0.00512 39.88992-21.4784 74.74688-53.59616 93.57824z"  horiz-adv-x="1024" />

    
    <glyph glyph-name="tixing--luyindonghua1" unicode="&#59016;" d="M660.20352 749.42464a17.92 17.92 0 1 1-26.35776-24.28416c81.64352-88.59648 126.60736-203.86304 126.60736-324.56704 0-135.74656-57.92768-265.69728-158.94016-356.52608a17.92 17.92 0 0 1 23.96672-26.6496c108.55424 97.61792 170.81344 237.28128 170.81344 383.17568-0.00512 129.72544-48.3328 253.61408-136.0896 348.8512zM509.81376 625.07008a17.92 17.92 0 1 1-25.20576-25.48224c55.48544-54.88128 86.04672-128.03584 86.04672-205.98784 0-87.13728-38.71232-168.8064-106.19904-224.06656a17.92512 17.92512 0 0 1 22.70208-27.72992c75.83744 62.09536 119.33184 153.87136 119.33184 251.79648 0.00512 87.6032-34.3296 169.80992-96.67584 231.47008zM370.36032 477.20448L261.34528 385.87392l110.12608-95.0784c31.4624 18.93888 52.48512 53.43744 52.48512 92.83072 0.00512 39.88992-21.4784 74.74688-53.59616 93.57824z"  horiz-adv-x="1024" />

    
    <glyph glyph-name="tixing--luyindonghua2" unicode="&#59017;" d="M370.36032 477.20448L261.34528 385.87392l110.12608-95.0784c31.4624 18.93888 52.48512 53.43744 52.48512 92.83072 0.00512 39.88992-21.4784 74.74688-53.59616 93.57824z"  horiz-adv-x="1024" />

    
    <glyph glyph-name="daohang--guanli" unicode="&#59022;" d="M854.6304 584.6528h-322.49856L434.72896 709.13024a17.92 17.92 0 0 1-14.11584 6.88128H169.33888c-26.92096 0-46.45888-19.55328-46.45888-46.4896v-571.06944c0-26.92096 19.53792-46.45888 46.45888-46.45888H854.6304c26.94144 0 46.4896 19.53792 46.4896 46.45888V538.17856c0 26.9312-19.54816 46.47424-46.4896 46.47424zM245.18656 411.63264h545.21344c1.42848 0 2.80064 0.20992 4.13696 0.52736h3.47136c8.90368 0 16.13824-6.44096 16.13824-15.36 0-8.90368-7.23456-15.36-16.13824-15.36H249.27232c-8.91904 0-16.13312 6.45632-16.13312 15.36-0.00512 7.5008 5.12 13.19424 12.04736 14.83264z"  horiz-adv-x="1024" />

    
    <glyph glyph-name="daohang--guanli1" unicode="&#59023;" d="M854.6304 584.6528h-322.49856L434.73408 709.13024a17.93024 17.93024 0 0 1-14.11584 6.87616H169.344c-26.92096 0-46.45888-19.55328-46.45888-46.4896v-571.06944c0-26.92096 19.53792-46.45888 46.45888-46.45888H854.6304c26.94144 0 46.4896 19.53792 46.4896 46.45888V538.17856c0 26.9312-19.54816 46.47424-46.4896 46.47424z m10.6496-486.20032c0-7.23968-3.38944-10.61888-10.6496-10.61888H169.344c-7.2448 0-10.61888 3.3792-10.61888 10.61888V669.5168c0 7.26528 3.37408 10.6496 10.61888 10.6496h242.54464L509.2864 555.68896a17.92 17.92 0 0 1 14.11072-6.87616h331.22816c7.26016 0 10.6496-3.3792 10.6496-10.63424v-439.72608zM790.4 447.47264h-573.44a17.92 17.92 0 1 1 0-35.84h573.44a17.92 17.92 0 0 1 0 35.84z"  horiz-adv-x="1024" />

    
    <glyph glyph-name="jilu--luyin" unicode="&#59024;" d="M512 773.12c-214.55872 0-389.12-174.55616-389.12-389.12 0-214.55872 174.56128-389.12 389.12-389.12s389.12 174.56128 389.12 389.12c0 214.56384-174.56128 389.12-389.12 389.12z m0-742.4c-194.80064 0-353.28 158.47936-353.28 353.28s158.47936 353.28 353.28 353.28 353.28-158.47936 353.28-353.28-158.47936-353.28-353.28-353.28zM505.16992 274.76992c50.816 0 92.16 41.33888 92.16 92.16v168.96c0 50.816-41.344 92.16-92.16 92.16s-92.16-41.344-92.16-92.16v-168.96c0-50.82112 41.344-92.16 92.16-92.16z m-56.32 261.12c0 31.0528 25.2672 56.32 56.32 56.32s56.32-25.2672 56.32-56.32v-168.96c0-31.0528-25.2672-56.32-56.32-56.32s-56.32 25.2672-56.32 56.32v168.96zM678.4 377.79968a17.92 17.92 0 1 1-35.84 0c0-71.99232-58.56768-130.56-130.56-130.56s-130.56 58.56768-130.56 130.56a17.92 17.92 0 1 1-35.84 0c0-84.22912 62.91456-153.98912 144.20992-164.87424v-50.79552h-97.28a17.92 17.92 0 1 1 0-35.84h225.28a17.92 17.92 0 1 1 0 35.84h-92.16v49.87392c85.39136 6.97856 152.75008 78.6432 152.75008 165.79584z"  horiz-adv-x="1024" />

    
    <glyph glyph-name="bukebianji" unicode="&#59025;" d="M708.10112 598.00576l-72.89344 52.39296a35.70688 35.70688 0 0 1-20.9152 6.72768 35.9424 35.9424 0 0 1-29.13792-14.94528l-230.40512-320.65536c-1.34656-1.87392-2.31936-3.9936-2.8672-6.24128l-36.00896-148.76672a17.92512 17.92512 0 0 1 26.01472-19.9424l138.01472 75.45856a18.08384 18.08384 0 0 1 5.95456 5.26336l230.41536 320.64512c11.53536 16.03584 7.8848 38.48192-8.17152 50.06336z m-326.23104-311.15264l57.76896-45.97248-79.40096-43.4176 21.632 89.39008z m86.23104-22.82496L397.7728 319.99488l180.6592 251.37664 54.0416-37.15584a17.8944 17.8944 0 0 1 24.91392 4.61824 17.90976 17.90976 0 0 1-4.61312 24.91392L599.3472 600.4736l14.95552 20.80768 72.87808-52.39808-219.07968-304.85504zM512 773.12c-214.56384 0-389.12-174.56128-389.12-389.12s174.55616-389.12 389.12-389.12c214.55872 0 389.12 174.56128 389.12 389.12s-174.56128 389.12-389.12 389.12z m249.98912-638.49472l-160.79872 176.96256a17.92 17.92 0 1 1-26.52672-24.09984l160.75776-176.9216C674.49344 60.6976 596.68992 30.72 512 30.72c-194.80064 0-353.28 158.47936-353.28 353.28 0 98.64192 40.68352 187.91936 106.09152 252.07296l133.56032-150.27712a17.87904 17.87904 0 0 1 13.40416-6.016 17.92 17.92 0 0 1 13.3888 29.824L291.64544 659.84C352.10752 708.23936 428.70272 737.28 512 737.28c194.80064 0 353.28-158.47936 353.28-353.28 0-97.24416-39.5008-185.43104-103.29088-249.37472zM309.76 112.64a17.92 17.92 0 0 1 17.92-17.92h307.2a17.92 17.92 0 1 1 0 35.84H327.68a17.92 17.92 0 0 1-17.92-17.92z"  horiz-adv-x="1024" />

    


  </font>
</defs>
</svg>
